PathFileType	4	(X/Y/Z)	OpenSim_Sub03_EMGBaseline_Gyro.trc
DataRate	CameraRate	NumFrames	NumMarkers	Units	OrigDataRate	OrigDataStartFrame	OrigNumFrames
100	100	41	8	m	100	1844	7372
Frame#	Time	torso_imu_offset_imu	pelvis_imu_offset_imu	tibia_r_imu_offset_imu	femur_r_imu_offset_imu	tibia_l_imu_offset_imu	femur_l_imu_offset_imu	toes_r_imu_offset_imu	toes_l_imu_offset_imu
				X1	Y1	Z1	X2	Y2	Z2	X3	Y3	Z3	X4	Y4	Z4	X5	Y5	Z5	X6	Y6	Z6	X7	Y7	Z7	X8		Y8	Z8	

1844	18.43000000	-0.45703538	-0.07888860	0.05793815	-0.54611527	0.10089756	-0.34296388	-0.70371268	-0.90458717	-1.84523108	-0.93281478	0.72354905	2.51977359	-1.03775843	-0.26796747	0.93053086	-0.41081626	-0.41851560	0.82906804	-1.53339790	-4.18894670	-3.17581771	-0.28595660	0.08693589	0.14265459
1845	18.44000000	-0.48771689	-0.12572579	0.04670915	-0.50392967	0.07175943	-0.24553381	-0.52287224	-0.87171743	-1.43625048	-1.00028667	0.55715706	2.43231718	-0.74452698	-0.23689550	0.90353288	-0.51540608	-0.45792026	0.76204090	-1.49940355	-4.14372554	-3.34764032	-0.28479829	0.07536793	0.16112059
1846	18.45000000	-0.51520274	-0.15779848	0.02297655	-0.44856219	0.02722762	-0.12486685	-0.33754034	-0.78123693	-1.04957317	-1.02238961	0.43880321	2.30844113	-0.33800481	-0.29783429	0.89242126	-0.58770077	-0.46462076	0.72636942	-1.14595751	-3.82723214	-3.58344676	-0.28482159	0.04648957	0.17579136
1847	18.46000000	-0.54202595	-0.17516459	-0.00651383	-0.38211360	-0.01271156	0.00246572	-0.26490011	-0.71066509	-0.74560745	-0.98496737	0.36499505	2.19117969	0.06698134	-0.33034567	0.90630333	-0.62307388	-0.44301436	0.72291990	-1.43579114	-2.44246777	-3.09796098	-0.30081957	0.02034674	0.18319987
1848	18.47000000	-0.56121288	-0.17137600	-0.02585042	-0.30544814	-0.04745676	0.10684382	-0.24479210	-0.52532163	-0.63772527	-0.92361066	0.27813437	2.09954877	0.33515139	-0.25652496	0.90927616	-0.58514788	-0.42935093	0.73371823	-2.14776294	-0.17000523	-1.84110326	-0.31489101	-0.00040514	0.20245700
1849	18.48000000	-0.57406317	-0.14237503	-0.04821204	-0.22008821	-0.07592713	0.19408997	-0.49204835	-0.29574862	-0.68887161	-0.84141442	0.15380655	2.01519326	0.35499389	-0.25399737	0.86998786	-0.49163189	-0.43760042	0.72692338	-1.80562902	1.63822973	-0.74670483	-0.32568692	-0.01641096	0.20035508
1850	18.49000000	-0.58495797	-0.10569833	-0.07001724	-0.14715365	-0.09394279	0.25629828	-1.13663584	-0.49692540	-0.57785371	-0.65510854	0.04344020	1.91162366	0.17082753	-0.26869453	0.85601924	-0.30369107	-0.46497787	0.69527314	-0.88413529	2.65544630	0.05118559	-0.28458509	-0.05654718	0.18628450
1851	18.50000000	-0.59301117	-0.07180301	-0.08492438	-0.09216156	-0.08854139	0.32148280	-1.81166738	-0.84477144	-0.25618622	-0.38044691	-0.00567049	1.82912369	-0.03079240	-0.25456526	0.87045744	-0.02798990	-0.47751030	0.63674261	-0.18372190	2.61293195	0.53281090	-0.23566497	-0.09896580	0.16224722
1852	18.51000000	-0.59287439	-0.03668148	-0.08657374	-0.04552501	-0.06861531	0.36185077	-1.87035013	-0.75897494	0.19107173	-0.11672693	-0.02015004	1.76010644	-0.07321991	-0.20883983	0.82677610	0.22531773	-0.42927517	0.56813033	0.14476194	2.31484688	0.93670893	-0.23259883	-0.13529458	0.15593490
1853	18.52000000	-0.58390551	-0.00032388	-0.05989757	0.00038697	-0.04359575	0.40325909	-1.14479072	-0.43580967	0.67118608	0.14735672	-0.04953352	1.68245940	-0.01921085	-0.18652445	0.83765155	0.40887365	-0.35090487	0.51800965	0.13674248	1.95003404	1.32618313	-0.23878292	-0.15392505	0.16512707
1854	18.53000000	-0.56666622	0.03504345	-0.02256521	0.04177752	-0.02113666	0.42336146	-0.15264263	-0.24925874	0.99179687	0.40268434	-0.09878079	1.60712943	0.08228692	-0.23762897	0.90336494	0.54752997	-0.29552309	0.48300044	-0.11881353	1.78255812	1.74228744	-0.22035020	-0.18302747	0.17859037
1855	18.54000000	-0.54955446	0.05723677	0.00042615	0.07472212	0.00066941	0.41705595	0.80719737	-0.04714560	1.18953891	0.63832215	-0.15785455	1.54901157	0.19290571	-0.23043600	0.91963446	0.61716459	-0.25915616	0.45137768	-0.38795373	1.93831591	2.15320640	-0.22271282	-0.18299848	0.18742287
1856	18.55000000	-0.52294622	0.06515560	0.01199917	0.12170269	0.01938752	0.42664686	1.45979354	0.18718104	1.41055001	0.86800400	-0.22405640	1.49931344	0.28228557	-0.16728305	0.90255275	0.60668139	-0.23142892	0.42189769	-0.50739448	2.38569481	2.50178614	-0.20482126	-0.17485734	0.19351584
1857	18.56000000	-0.49532537	0.06695495	0.01471283	0.16620335	0.03783290	0.38624660	1.62320565	0.27818854	1.65169639	1.09966481	-0.27380096	1.43448893	0.27947773	-0.16784994	0.89502801	0.53862181	-0.21327734	0.38966134	-0.36766515	3.02253161	2.74374808	-0.17711501	-0.18871366	0.18807883
1858	18.57000000	-0.46501371	0.05656515	0.02352394	0.19906030	0.06352494	0.34390552	1.42217047	0.26823415	1.85967729	1.29988872	-0.30196619	1.36585784	0.22860965	-0.16989552	0.91516952	0.45111775	-0.18908227	0.37381472	-0.11836354	3.48407786	2.83682815	-0.15405743	-0.19277511	0.17991986
1859	18.58000000	-0.43161838	0.03080497	0.04151539	0.22430930	0.08121830	0.31866160	1.10629922	0.24578484	2.07588146	1.42246888	-0.31016860	1.36013373	0.15103645	-0.15321780	0.93151922	0.39310574	-0.16306865	0.35458799	-0.12316199	3.64098221	2.83884819	-0.11093597	-0.18656696	0.15519935
1860	18.59000000	-0.39384633	-0.00226108	0.06917159	0.22038091	0.09360127	0.26486365	0.92183927	0.29727579	2.35480432	1.44071940	-0.32655213	1.34252936	0.11519944	-0.13588489	0.91567167	0.34854718	-0.14771245	0.34522210	-0.35090386	3.74423292	2.80794989	-0.09059790	-0.20519697	0.14651667
1861	18.60000000	-0.35512186	-0.03553385	0.09462794	0.22547954	0.09854979	0.26164822	0.80270983	0.50227000	2.67289801	1.36992811	-0.37379315	1.21922479	0.08940299	-0.12468039	0.88523317	0.28564302	-0.14593196	0.36895318	-0.66596266	3.79837390	2.69084540	-0.10150386	-0.21771888	0.15459526
1862	18.61000000	-0.31964911	-0.06838285	0.10690605	0.22507440	0.09595928	0.24175078	0.61922880	0.68319285	2.95086538	1.29780747	-0.42318123	1.08800780	0.03764543	-0.16614101	0.87645992	0.20547760	-0.14489363	0.40625351	-0.82269489	3.84071402	2.48743119	-0.11243095	-0.21171719	0.16276967
1863	18.62000000	-0.28459792	-0.09823160	0.11935365	0.20995712	0.09925509	0.20456814	0.41253320	0.72682174	3.15762816	1.26319971	-0.42410934	0.98662899	0.08179287	-0.17707702	0.87115296	0.13721971	-0.14057717	0.43562105	-0.79512217	3.90450671	2.24695871	-0.11070627	-0.20085450	0.17752278
1864	18.63000000	-0.25567141	-0.11995372	0.11633294	0.21902662	0.09552356	0.20128958	0.16276632	0.74556037	3.32401132	1.27003469	-0.37479987	0.92185357	0.16628540	-0.13953785	0.83974199	0.09002002	-0.12900036	0.46171389	-0.74448693	4.01152398	2.01990016	-0.11112509	-0.19549256	0.18337281
1865	18.64000000	-0.22500107	-0.13416901	0.12105991	0.23211079	0.07992145	0.18264503	-0.24651922	0.72512311	3.45344496	1.25174589	-0.35143228	0.83996259	0.19668801	-0.13042990	0.81371265	0.04670648	-0.11810991	0.49085120	-0.81983831	4.16416357	1.84293534	-0.12323611	-0.18698322	0.19064635
1866	18.65000000	-0.20610091	-0.14536130	0.12600244	0.23883803	0.06423852	0.15405657	-0.58636482	0.69822893	3.59544238	1.13599601	-0.36566846	0.73638947	0.18678161	-0.12861078	0.78125152	0.00676390	-0.11277076	0.52137818	-0.99390749	4.30604640	1.70336534	-0.10991067	-0.18513509	0.19652059
1867	18.66000000	-0.19717043	-0.15566003	0.13534659	0.25572722	0.05954487	0.14914829	-0.55567267	0.72772968	3.78473060	0.95185019	-0.40687718	0.64859243	0.16420334	-0.12150286	0.76470325	-0.00131581	-0.10875651	0.55034934	-1.10606715	4.38069559	1.61383254	-0.10019449	-0.18871999	0.20113032
1868	18.67000000	-0.18545521	-0.16789379	0.16083174	0.27771510	0.07231776	0.17024462	-0.22739302	0.72861298	3.97253414	0.70295391	-0.46228511	0.51836559	0.18222557	-0.08694626	0.74763534	0.02043575	-0.10888535	0.56220877	-1.05702093	4.39005566	1.61322049	-0.09092494	-0.19149740	0.18990664
1869	18.68000000	-0.16378887	-0.18003920	0.16863602	0.29407914	0.08646614	0.16538139	0.25110793	0.71406445	4.12284872	0.40773249	-0.49314318	0.36499124	0.17471460	-0.06257282	0.72597821	0.04603042	-0.11526347	0.58013167	-0.89547853	4.35700881	1.75788926	-0.07323994	-0.19638353	0.17812903
1870	18.69000000	-0.14001433	-0.18661895	0.16406202	0.30531963	0.10459134	0.16127618	0.73996433	0.76273106	4.22944509	0.08175486	-0.51074935	0.17017074	0.17537679	-0.05919639	0.70009707	0.06953876	-0.12337446	0.60028576	-0.71708786	4.29785514	2.07128116	-0.05169408	-0.21117089	0.16981099
1871	18.70000000	-0.13027386	-0.17327584	0.17017657	0.30828677	0.11849904	0.11696335	1.10386280	0.84489479	4.27251317	-0.17217820	-0.53375118	-0.02191623	0.17662834	-0.05339507	0.68715391	0.09444200	-0.12086131	0.61870323	-0.51193830	4.19939107	2.51171482	-0.02436089	-0.24017799	0.16034403
1872	18.71000000	-0.11692822	-0.15487243	0.16714764	0.32174862	0.11622513	0.08519589	1.34429189	0.95409077	4.26455060	-0.30627955	-0.52503029	-0.18618703	0.21443513	-0.05751990	0.68789451	0.13686788	-0.11627621	0.62362421	-0.27533010	4.01196434	2.99890001	-0.02041859	-0.25071991	0.16687794
1873	18.72000000	-0.09647210	-0.14900186	0.16226504	0.34689571	0.11567696	0.09094476	1.45469633	1.06662411	4.25825116	-0.33364772	-0.50049679	-0.33185539	0.28533323	-0.05066404	0.67444272	0.17628542	-0.10660583	0.64117649	-0.02853729	3.77651111	3.45229359	-0.01307315	-0.29335102	0.17978026
1874	18.73000000	-0.06930652	-0.14510102	0.15613438	0.35879909	0.12019960	0.05505926	1.54433277	1.16621602	4.25638402	-0.28382265	-0.47921615	-0.46702699	0.32996057	-0.02770782	0.65810489	0.20691395	-0.09488113	0.65188971	0.21928635	3.54996932	3.79089503	-0.03042298	-0.31691770	0.19878071
1875	18.74000000	-0.03696846	-0.13216876	0.15070602	0.37331521	0.13557806	0.03529853	1.78733372	1.27018645	4.21644192	-0.17990966	-0.43119921	-0.57795894	0.33517552	-0.02498002	0.65720775	0.25241618	-0.07374614	0.64904389	0.39964442	3.30117284	3.99045557	-0.03853279	-0.37731945	0.18062507
1876	18.75000000	-0.00111582	-0.11455803	0.14462278	0.38796425	0.15880290	0.01835862	2.03948602	1.34582225	4.14314726	-0.00420463	-0.35513266	-0.65334062	0.32322376	-0.00825543	0.67787172	0.31464179	-0.05067322	0.64836591	0.46201095	3.06670339	4.09034291	-0.00863361	-0.41688535	0.15755179
1877	18.76000000	0.03016995	-0.09510444	0.14856654	0.39740092	0.17025561	0.00217335	2.12385337	1.43655859	4.03498500	0.22503366	-0.29712563	-0.69682228	0.33792539	0.01902880	0.69066079	0.35049581	-0.03496605	0.64167493	0.47477783	2.92683832	4.11204276	-0.00174461	-0.38961151	0.18547253
1878	18.77000000	0.06814248	-0.07594670	0.14784656	0.41548925	0.15005441	-0.00275824	2.00798375	1.55545693	3.86980383	0.43238987	-0.30507592	-0.71664322	0.34581994	0.03018905	0.69596386	0.35106327	-0.01814222	0.61613734	0.51252485	2.84507325	4.03205139	-0.01381144	-0.43394621	0.18400989
1879	18.78000000	0.10558106	-0.06297047	0.13947052	0.44282055	0.11621268	-0.01293806	1.71038177	1.53108669	3.68103152	0.56518790	-0.40698143	-0.73177221	0.36205490	0.01249108	0.72446649	0.32555941	0.00760086	0.60674615	0.51803650	2.76021207	3.83953538	-0.00241836	-0.47355997	0.18557045
1880	18.79000000	0.13736597	-0.06377057	0.13860517	0.45796241	0.07750813	0.00321992	1.44840935	1.43053359	3.46897190	0.66335233	-0.55048161	-0.76886984	0.37769695	0.03262884	0.77480397	0.32120145	0.02512130	0.58895946	0.46022493	2.65600717	3.53851062	0.01139175	-0.51611527	0.19730484
1881	18.80000000	0.16407206	-0.07069056	0.14678036	0.47542593	0.03589022	0.04036463	1.28178502	1.39398022	3.24159633	0.88708642	-0.60513965	-0.82687726	0.35788934	0.04076341	0.80299088	0.31537077	0.04804282	0.57114787	0.44749053	2.57057554	3.11808626	0.00030892	-0.56759339	0.19435148
1882	18.81000000	0.19462714	-0.08381426	0.15836714	0.48592305	0.01333868	0.05647427	1.16101001	1.26882942	3.02170455	1.22294512	-0.55310668	-0.88439580	0.34502472	0.05591813	0.80790004	0.30299390	0.06210193	0.56522036	0.50476443	2.45025087	2.59497993	-0.02044481	-0.62178999	0.19595770
1883	18.82000000	0.22110019	-0.09744099	0.17635184	0.48343435	0.02270430	0.07066715	1.05534272	1.03088051	2.76968802	1.45936493	-0.46659170	-0.90821476	0.34023276	0.06733569	0.83112672	0.28721054	0.07123067	0.54586378	0.44666871	2.24106894	2.09270377	-0.00258586	-0.68553037	0.19777869
1884	18.83000000	0.24150901	-0.10218761	0.18024891	0.46548854	0.04802916	0.09088331	0.92089967	0.84371549	2.44909203	1.55678067	-0.37672274	-0.87178746	0.35302265	0.08106180	0.88531483	0.31010315	0.09507673	0.53849337	0.10707706	1.95206327	1.74747273	0.00005215	-0.76059184	0.19514613
